<?xml version="1.0" encoding="utf-8"?>
<!-- Generator: Adobe Illustrator 27.5.0, SVG Export Plug-In . SVG Version: 6.00 Build 0)  -->
<svg version="1.1" id="Layer_1" xmlns="http://www.w3.org/2000/svg" xmlns:xlink="http://www.w3.org/1999/xlink" x="0px" y="0px"
	 viewBox="0 0 320 82.9" style="enable-background:new 0 0 320 82.9;" xml:space="preserve">
<style type="text/css">
	.st0{fill:#009B48;}
</style>
<g>
	<path class="st0" d="M44.5,82.9H28.1L-0.1,0h14.9l21.1,63L57.1,0h14.9L44.5,82.9z"/>
	<path class="st0" d="M97,0v68.9h33.6v14.1H82.9V0H97z"/>
	<path class="st0" d="M163.5,0h16.4l28.2,82.9h-14.9l-5.5-16.6h-31.3L151,82.9h-14.9L163.5,0z M182.2,52.1l-11-31.6l-11,31.6H182.2z
		"/>
	<path class="st0" d="M232.3,0v82.9h-14.1V0H232.3z"/>
	<path class="st0" d="M244.1,41.5c0-11.7,3.9-21.9,11-29.7S271.4,0,282.4,0s21.1,4.7,27.4,11.7c6.3,7.8,10.2,18,10.2,29.7
		s-3.9,21.9-11,29.7c-7,7.8-16.4,11.7-28.2,11.7c-11.7,0-21.1-4.7-27.4-11.7C248,63.4,244.1,53.2,244.1,41.5z M258.1,40.7
		c0,7.8,2.3,14.9,6.3,20.3c3.9,4.7,10.2,7.8,18,7.8s14.1-3.1,18-7.8c3.9-4.7,6.3-11.7,6.3-19.6c0-9.4-3.1-16.4-7.8-21.1
		s-11-7-17.2-7s-11.7,2.3-16.4,7C261.3,25,258.1,32.1,258.1,40.7z"/>
</g>
</svg>
